<?xml version="1.0" encoding="utf-8"?>
<!-- Generator: Adobe Illustrator 23.0.3, SVG Export Plug-In . SVG Version: 6.00 Build 0)  -->
<svg version="1.1" id="Layer_1" xmlns="http://www.w3.org/2000/svg" xmlns:xlink="http://www.w3.org/1999/xlink" x="0px" y="0px"
	 viewBox="0 0 4010 1024" style="enable-background:new 0 0 4010 1024;" xml:space="preserve">
<style type="text/css">
	.st0{fill:#F0B90B;}
</style>
<path class="st0" d="M1443.8,511.6h-188.4V115.4h184.3c81.2,0,130.8,40.6,130.8,102.3v1.6c0,44.7-23.6,69.8-52,85.2
	c45.5,17.9,73.9,43.9,73.9,97.5v0.9C1591.6,475.9,1533.1,511.7,1443.8,511.6L1443.8,511.6z M1482.8,232.2c0-26-20.3-40.6-56.8-40.6
	h-86.1v83.6h80.4c38.1,0,62.5-12.2,62.5-42.2V232.2L1482.8,232.2z M1505.5,391.4c0-26.8-19.5-43-64.1-43h-101.5v86.8h104
	c38.1,0,61.7-13.8,61.7-43V391.4L1505.5,391.4z M1687.5,511.6V115.3h86.9v396.3L1687.5,511.6L1687.5,511.6z M2169,511.6
	l-191.7-251.7v251.7h-86.1V115.3h80.4l185.9,244.4V115.3h86.1v396.3L2169,511.6L2169,511.6z M2635.1,511.6l-36.6-88.5h-167.3
	l-35.8,88.5h-89.3L2475.9,112h80.4l170.5,399.6H2635.1L2635.1,511.6z M2514.9,217.6l-52.8,128.3h105.6L2514.9,217.6z M3067.9,511.6
	l-191.6-251.7v251.7h-86.1V115.3h80.4l185.9,244.4V115.3h86.1v396.3L3067.9,511.6L3067.9,511.6z M3430.1,518.8
	c-116.9,0-203.1-90.1-203.1-203.8v-0.9c0-112.9,85.3-204.6,207.1-204.6c74.8,0,119.4,25.2,155.9,60.9l-55.2,64.2
	c-30.9-27.6-61.7-44.6-101.5-44.6c-66.6,0-115.3,55.2-115.3,123.4v0.8c0,68.2,47.1,124.2,115.3,124.2c45.4,0,73-17.9,103.9-46.3
	l55.2,56C3551.9,491.3,3506.4,518.9,3430.1,518.8L3430.1,518.8z M3662.4,511.6V115.3h298.8v78h-212v80.4H3936v78h-186.8v83.6h215.2
	v76.4L3662.4,511.6L3662.4,511.6z M2214.5,672.3h-159.1v76.3h141.3v44.7h-141.3v114.5h-49.5v-281h208.6L2214.5,672.3L2214.5,672.3z
	 M2515.7,786c0,83.6-47.1,125.9-121,125.9c-73.1,0-119.4-42.2-119.4-123.4V626.9h49.5V786c0,52,26.8,80.4,70.7,80.4
	s70.7-26.8,70.7-78V626.9h49.5V786L2515.7,786z M2714.7,907.8h-49.5V673.2h-89.4v-45.5h227.4v45.5h-89.3v234.7H2714.7L2714.7,907.8z
	 M3103.7,786c0,83.6-47.1,125.9-121,125.9c-73.1,0-119.3-42.2-119.3-123.4V626.9h49.5V786c0,52,26.8,80.4,70.7,80.4
	c43.9,0,70.7-26.8,70.7-78V626.9h49.5V786L3103.7,786z M3369.2,907.8l-69-97.5h-61.7v97.5h-49.6v-281h125c64.2,0,104,34.1,104,89.3
	c0,46.3-27.6,74.7-66.6,85.2l75.5,106.4L3369.2,907.8L3369.2,907.8z M3310.8,672.3h-71.5v94.3h72.3c34.9,0,57.6-18.7,57.6-47.1
	C3368.4,688.6,3347.2,672.3,3310.8,672.3L3310.8,672.3z M3703,671.5h-158.3v73.1h140.5v43.9h-140.5V864h160.8v43.8H3495v-281H3703
	V671.5z M3888.1,745.4c59.3,14.6,90.1,35.7,90.1,82.8c0,52.8-41.4,84.5-99.8,84.5c-43.2,0.4-85-15.6-116.9-44.7l30-34.9
	c26.8,23.6,53.6,36.6,88.5,36.6c30.9,0,49.5-13.8,49.5-35.8c0-20.3-11.3-31.7-63.3-43c-60.1-14.6-93.4-31.7-93.4-84.5
	c0-48.7,39.8-82,95.8-82c40.6,0,73.1,12.2,101.5,34.9l-26.8,37.4c-25.2-18.7-50.3-29.2-76.4-29.2c-29.2,0-45.4,14.6-45.4,33.3
	C3822.3,722.7,3834.5,732.4,3888.1,745.4L3888.1,745.4z M1824.7,744.6h-570v47.1h570V744.6L1824.7,744.6z M115.3,396.3L0,511.6
	l115.3,115.3l116.1-115.3L115.3,396.3L115.3,396.3z M511.6,231.5l198.1,198.1L825,314.3l-197.3-199L511.6,0L396.3,115.3L198.1,313.5
	l115.3,115.3L511.6,231.5L511.6,231.5z M907.9,396.3L792.6,511.7l115.3,115.3L1024,511.6L907.9,396.3L907.9,396.3z M511.6,792.6
	L313.5,594.5L198.1,709.8l198.1,198.1L511.6,1024l115.3-115.3L825,710.6L709.7,594.4L511.6,792.6L511.6,792.6z M511.6,627.8
	l116.1-116.1L511.6,396.3L396.3,511.7L511.6,627.8L511.6,627.8z"/>
</svg>
