<?xml version="1.0" encoding="utf-8"?>
<!-- Generator: Adobe Illustrator 23.0.3, SVG Export Plug-In . SVG Version: 6.00 Build 0)  -->
<svg version="1.1" id="Layer_1" xmlns="http://www.w3.org/2000/svg" xmlns:xlink="http://www.w3.org/1999/xlink" x="0px" y="0px"
	 viewBox="0 0 157 22" style="enable-background:new 0 0 157 22;" xml:space="preserve">
<style type="text/css">
	.st0{fill:none;}
	.st1{fill-rule:evenodd;clip-rule:evenodd;fill:#D7E2F2;}
	.st2{fill-rule:evenodd;clip-rule:evenodd;fill:#3C7AD2;}
</style>
<title>Huobi Futures-logosvg</title>
<desc>Created with Sketch.</desc>
<g>
	<g id="futures导航" transform="translate(-64.000000, -13.000000)">
		<g id="导航1920-1">
			<g id="Huobi-Futures-logo" transform="translate(64.000000, 13.000000)">
				<line id="Fill-1" class="st0" x1="144.3" y1="21.8" x2="144.3" y2="21.8"/>
				<line id="Fill-2" class="st0" x1="99.9" y1="21.7" x2="99.9" y2="21.7"/>
				<path id="Fill-3" class="st1" d="M27.2,5.7V12H21V6.5c0-0.4-0.4-0.8-0.8-0.8h-2.1v14.9c0,0.4,0.4,0.8,0.8,0.8H21v-6.9h6.2v6.1
					c0,0.4,0.4,0.8,0.8,0.8h2.1V6.5c0-0.4-0.4-0.8-0.8-0.8H27.2"/>
				<path id="Fill-4" class="st1" d="M39.3,9.4v7.5c0,0.7-0.3,1.3-0.9,1.7c-1.6,0.9-3.3-0.2-3.3-1.8v-6.5c0-0.4-0.4-0.8-0.8-0.8
					h-2.1V17c0,2.4,2,4.4,4.4,4.4h1.2c2.4,0,4.4-2,4.4-4.4v-6.8c0-0.4-0.4-0.8-0.8-0.8L39.3,9.4L39.3,9.4"/>
				<path id="Fill-5" class="st2" d="M71.3,21.4h2.1V10.9c0-0.4-0.4-0.8-0.8-0.8h-2.1v10.6C70.5,21.1,70.8,21.4,71.3,21.4"/>
				<path id="Fill-6" class="st2" d="M71.9,8.9c0.9,0,1.6-0.7,1.6-1.6s-0.7-1.6-1.6-1.6c-0.9,0-1.6,0.7-1.6,1.6S71,8.9,71.9,8.9"/>
				<path id="Fill-7" class="st1" d="M52.4,16.5c0,1.4-1.2,2.4-2.6,2.4c-1.4,0-2.6-1-2.6-2.4v-2c0-1.4,1.2-2.4,2.6-2.4
					c1.4,0,2.6,1,2.6,2.4V16.5z M49.8,9.4L49.8,9.4c-3,0-5.5,2.2-5.5,5.2v1.6c0,3,2.5,5.2,5.5,5.2c3,0,5.5-2.2,5.5-5.2v-1.6
					C55.3,11.6,52.8,9.4,49.8,9.4L49.8,9.4z"/>
				<path id="Fill-8" class="st2" d="M65.5,16.5c0,1.4-1.2,2.4-2.6,2.4c-1.4,0-2.6-1-2.6-2.4v-2c0-1.4,1.2-2.4,2.6-2.4
					c1.4,0,2.6,1,2.6,2.4V16.5z M62.9,9.4L62.9,9.4c-0.9,0-1.8,0.2-2.6,0.6V6.5c0-0.4-0.4-0.8-0.8-0.8h-2.1v10.6
					c0,3,2.5,5.2,5.5,5.2c3,0,5.5-2.2,5.5-5.2v-1.6C68.4,11.6,65.9,9.4,62.9,9.4L62.9,9.4z"/>
				<path id="Fill-9" class="st1" d="M9.4,6.8c0-3.1-1.5-5.8-2.7-6.7c0,0-0.1,0-0.1,0.1c0,0,0,0,0,0c-0.1,6-3.2,7.7-4.9,9.9
					c-3.9,5.1-0.3,10.7,3.4,11.7c2.1,0.6-0.5-1-0.8-4.4C4,13.3,9.4,10.2,9.4,6.8"/>
				<path id="Fill-10" class="st2" d="M11.2,8.9C11.1,8.8,11.1,8.8,11.2,8.9c-0.1,0.8-0.9,2.4-1.9,3.9c-3.3,5.1-1.4,7.5-0.4,8.8
					c0.6,0.8,0,0,1.6-0.8c0.1-0.1,3-1.7,3.3-5.4C14.1,11.8,11.9,9.5,11.2,8.9"/>
				<path id="Fill-11" class="st1" d="M143.1,14.1h-4.9c0.1-0.7,0.4-1.3,0.8-1.7c0.4-0.5,1-0.7,1.8-0.7c0.4,0,0.8,0.1,1,0.2
					c0.3,0.1,0.5,0.3,0.7,0.6c0.2,0.2,0.3,0.5,0.4,0.9C143.1,13.6,143.1,13.8,143.1,14.1z M145.5,12.7c-0.2-0.7-0.5-1.2-0.9-1.7
					c-0.4-0.5-0.9-0.9-1.6-1.1c-0.6-0.3-1.3-0.4-2.1-0.4c-0.9,0-1.8,0.2-2.5,0.5c-0.7,0.3-1.3,0.8-1.7,1.3c-0.5,0.5-0.8,1.2-1,1.9
					c-0.2,0.7-0.3,1.5-0.3,2.3c0,0.8,0.1,1.6,0.3,2.3c0.2,0.7,0.6,1.4,1.1,1.9c0.5,0.5,1.1,1,1.9,1.2c0.8,0.3,1.9,0.5,3,0.3
					c1.9-0.2,2.7-1,3.3-1.7c1-1.3,0.7-1.6,0.7-1.6h-2.2c-0.2,0-0.8,1-2.4,1c-1.1,0-1.5-0.2-2.1-0.7c-0.5-0.5-0.8-1.2-0.8-2.1h7.4
					c0.2,0,0.3-0.1,0.3-0.3C145.9,15.1,145.9,13.9,145.5,12.7L145.5,12.7z"/>
				<path id="Fill-12" class="st1" d="M155.3,15.8c-0.5-0.5-1.3-1-2.6-1.5c-1.2-0.5-1.6-0.7-1.7-0.8c-0.2-0.2-0.3-0.4-0.3-0.7
					c0-0.3,0.1-0.5,0.4-0.7c0.3-0.2,0.7-0.3,1.3-0.3c0.9,0,1.8,0.2,2.5,0.7l0.4,0.3l0,0c0.1,0,0.2,0,0.2-0.3c0,0,0-2,0-2
					c0-0.1-0.1-0.3-0.3-0.4c-1.1-0.5-2.1-0.6-2.8-0.6h0c-1.2,0-2.3,0.3-3.1,0.9c-0.9,0.7-1.4,1.5-1.4,2.6c0,0.8,0.2,1.4,0.6,1.9
					c0.4,0.5,1.2,1,2.5,1.6c1,0.4,1.6,0.6,1.9,0.9c0.2,0.2,0.3,0.4,0.3,0.7c0,0.3-0.1,0.5-0.2,0.7c-0.3,0.3-0.8,0.4-1.6,0.4
					c-1.9,0-3.3-1-3.3-1l-0.1,0l-0.1,0c-0.1,0.1-0.1,0.2-0.1,0.3v2.1l0,0c0,0.1,0.1,0.2,0.2,0.2c0.9,0.4,1.9,0.7,3.1,0.7
					c1.4,0,2.5-0.3,3.4-0.9c0.9-0.6,1.4-1.5,1.4-2.7C156.1,17.1,155.8,16.4,155.3,15.8"/>
				<path id="Fill-13" class="st1" d="M90.3,8.5V6.7c0-0.5-0.4-1-0.9-1H79.3l0,0.1c0,0,0,11.4,0,14.6c0,0.3,0.1,0.5,0.3,0.7
					c0.2,0.2,0.4,0.3,0.7,0.3l1.9,0v-6.8h5.8c0.1,0,0.4,0,0.9,0l0.1,0v-1.8c0-0.3-0.1-0.5-0.3-0.7c-0.2-0.2-0.4-0.3-0.7-0.3l-5.9,0
					V8.5H90.3"/>
				<path id="Fill-14" class="st1" d="M111.9,21.4v-1.8c0-0.4-0.3-0.8-0.8-0.8c-0.4,0-1,0-1.4,0c-1.2,0-1.9-0.6-1.9-2.1V12h4.1v-1.8
					c0-0.4-0.3-0.8-0.8-0.8h-3.3v-3c0-0.4-0.3-0.8-0.8-0.8h-2.1V17c0,2.8,1.4,4.4,4.4,4.4c0,0,0.1,0,0.1,0H111.9"/>
				<path id="Fill-15" class="st1" d="M99.8,9.5v7.5c0,0.7-0.3,1.3-0.9,1.7c-1.6,0.9-3.3-0.2-3.3-1.8v-6.5c0-0.4-0.4-0.8-0.8-0.8
					h-2.1V17c0,2.4,2,4.4,4.4,4.4h1.2c2.4,0,4.4-2,4.4-4.4v-6.8c0-0.4-0.4-0.8-0.8-0.8L99.8,9.5L99.8,9.5"/>
				<path id="Fill-16" class="st1" d="M121.4,9.5v7.5c0,0.7-0.3,1.3-0.9,1.7c-1.6,0.9-3.3-0.2-3.3-1.8l0-6.5c0-0.4-0.4-0.8-0.8-0.8
					h-2.1V17c0,2.4,2,4.4,4.4,4.4h1.2c2.4,0,4.4-2,4.4-4.4v-6.8c0-0.4-0.4-0.8-0.8-0.8L121.4,9.5L121.4,9.5"/>
				<path id="Fill-17" class="st1" d="M131,9.3c-3.2,0-4.4,2.3-4.4,4.7v6.6c0,0.5,0.4,0.9,0.9,0.9h2.1v-6.9c0-1.2,0.3-1.9,0.9-2.3
					c0.5-0.4,1.3-0.6,3,0.1v-2C133.5,10,132.8,9.3,131,9.3"/>
			</g>
		</g>
	</g>
</g>
</svg>
