<?xml version="1.0" encoding="utf-8"?>
<!-- Generator: Adobe Illustrator 23.0.3, SVG Export Plug-In . SVG Version: 6.00 Build 0)  -->
<svg version="1.1" id="Layer_1" xmlns="http://www.w3.org/2000/svg" xmlns:xlink="http://www.w3.org/1999/xlink" x="0px" y="0px"
	 viewBox="0 0 95 28" style="enable-background:new 0 0 95 28;" xml:space="preserve">
<style type="text/css">
	.st0{fill:#23AF91;}
</style>
<title>KuCoin_Futures_en</title>
<g id="Symbols">
	<g id="KuCoin_Futures_en">
		<path id="Shape" class="st0" d="M8.2,14.2l8.2,8.2l5.2-5.2c0.9-0.9,2.4-0.9,3.3,0c0.9,0.9,0.9,2.4,0,3.3l-6.8,6.8
			c-0.9,0.9-2.4,0.9-3.3,0l-9.9-9.9v5.9c0,1.3-1.1,2.3-2.3,2.3s-2.3-1.1-2.3-2.3V4.9c0-1.3,1.1-2.3,2.3-2.3s2.3,1.1,2.3,2.3v5.9
			l9.9-9.9c0.9-0.9,2.4-0.9,3.3,0l6.8,6.8c0.9,0.9,0.9,2.4,0,3.3C24,12,22.5,12,21.6,11l-5.2-5.1L8.2,14.2L8.2,14.2L8.2,14.2z
			 M16.4,11.8L16.4,11.8c-1.3,0-2.3,1.1-2.3,2.3s1.1,2.3,2.3,2.3c1.3,0,2.3-1.1,2.3-2.3S17.7,11.8,16.4,11.8z"/>
		<g id="Group" transform="translate(34.558559, 2.522523)">
			<path class="st0" d="M41.8,5.8c0-0.5,0-1,0-1.4c0-0.4-0.1-0.8-0.1-1.2s-0.2-0.7-0.3-1.1s-0.4-0.6-0.7-0.9
				c-0.4-0.4-0.8-0.7-1.4-0.9c-0.5-0.2-1.1-0.3-1.7-0.3s-1.2,0.1-1.7,0.3c-0.5,0.2-1,0.5-1.4,0.9c-0.3,0.3-0.5,0.6-0.7,0.9
				c-0.2,0.3-0.3,0.7-0.3,1.1S33.4,4,33.3,4.4c0,0.4,0,0.9,0,1.4s0,0.9,0,1.4c0,0.4,0.1,0.8,0.1,1.2c0.1,0.4,0.2,0.7,0.3,1.1
				c0.2,0.3,0.4,0.6,0.7,0.9c0.4,0.4,0.8,0.7,1.4,0.9c0.5,0.2,1.1,0.3,1.7,0.3s1.2-0.1,1.7-0.3c0.5-0.2,1-0.5,1.4-0.9
				c0.3-0.3,0.5-0.6,0.7-0.9c0.2-0.3,0.3-0.7,0.3-1.1c0.1-0.4,0.1-0.8,0.1-1.2C41.8,6.8,41.8,6.3,41.8,5.8L41.8,5.8L41.8,5.8z
				 M39.6,5.8c0,0.5,0,1,0,1.4c0,0.4-0.1,0.7-0.1,0.9c-0.1,0.2-0.1,0.4-0.2,0.6C39.2,8.8,39.1,8.9,39,9c-0.2,0.2-0.4,0.3-0.6,0.4
				c-0.2,0.1-0.5,0.2-0.8,0.2c-0.3,0-0.6-0.1-0.8-0.2c-0.3-0.1-0.4-0.3-0.6-0.4c-0.1-0.1-0.2-0.3-0.3-0.4c-0.1-0.2-0.1-0.3-0.2-0.6
				c-0.1-0.2-0.1-0.5-0.1-0.9c0-0.4,0-0.8,0-1.4c0-0.5,0-1,0-1.4c0-0.4,0.1-0.7,0.1-0.9c0.1-0.2,0.1-0.4,0.2-0.6
				c0.1-0.2,0.2-0.3,0.3-0.4c0.2-0.2,0.4-0.3,0.6-0.4S37.3,2,37.6,2c0.3,0,0.6,0.1,0.8,0.2c0.2,0.1,0.4,0.3,0.6,0.4
				c0.1,0.1,0.2,0.3,0.3,0.4c0.1,0.2,0.1,0.3,0.2,0.6c0,0.2,0.1,0.5,0.1,0.9C39.5,4.8,39.6,5.3,39.6,5.8z"/>
			<path id="Path" class="st0" d="M59.5,0.3c0-0.1-0.1-0.2-0.2-0.2h-1.8c-0.1,0-0.2,0.1-0.2,0.2v6.8l-4.5-6.9c0-0.1-0.1-0.1-0.1-0.1
				H51c-0.1,0-0.2,0.1-0.2,0.2c0,3.7,0,7.3,0,11c0,0.1,0.1,0.2,0.2,0.2h1.8c0.1,0,0.2-0.1,0.2-0.2V4.5l4.5,7c0,0.1,0.1,0.1,0.1,0.1
				h1.7c0.1,0,0.2-0.1,0.2-0.2V0.3L59.5,0.3z"/>
			<path class="st0" d="M47.2,0.3c0-0.1-0.1-0.2-0.2-0.2h-1.8c-0.1,0-0.2,0.1-0.2,0.2v11c0,0.1,0.1,0.2,0.2,0.2H47
				c0.1,0,0.2-0.1,0.2-0.2V0.3z"/>
			<path class="st0" d="M25.3,5.8c0-0.5,0-1,0-1.4c0-0.4,0.1-0.7,0.1-0.9c0.2-1,0.9-1.5,1.9-1.5c0.6,0,1.2,0.2,1.5,0.8
				c0.2,0.2,0.3,0.5,0.4,0.8c0,0,0,0.1,0.1,0.1h2.2c0,0,0.1,0,0.1-0.1c-0.2-1.3-0.9-2.5-2.2-3.1c-0.6-0.3-1.2-0.4-2-0.4
				c-1.2,0-2.2,0.4-3.1,1.2c-0.5,0.5-0.8,1.1-0.9,1.7c-0.1,0.6-0.2,1.6-0.2,2.8s0.1,2.2,0.2,2.8c0.1,0.7,0.4,1.2,0.9,1.7
				c0.8,0.8,1.9,1.2,3.1,1.2c0.7,0,1.4-0.2,2-0.4c1.3-0.6,2-1.8,2.2-3.1c0,0,0-0.1-0.1-0.1h-2.2c-0.1,0-0.1,0-0.1,0.1
				c-0.1,0.3-0.2,0.6-0.4,0.8c-0.4,0.5-0.9,0.8-1.5,0.8c-1,0-1.7-0.6-1.9-1.5c-0.1-0.2-0.1-0.5-0.1-0.9C25.3,6.8,25.3,6.4,25.3,5.8z
				"/>
			<path class="st0" d="M2.4,0.3c0-0.1-0.1-0.2-0.2-0.2H0.4c-0.1,0-0.2,0.1-0.2,0.2v11c0,0.1,0.1,0.2,0.2,0.2h1.8
				c0.1,0,0.2-0.1,0.2-0.2V8.1l1.5-1.8l3,5.1c0,0.1,0.1,0.1,0.1,0.1h2.2c0.1,0,0.1-0.1,0.1-0.2l-4-6.7L9,0.3C9.1,0.2,9.1,0.1,9,0.1
				H6.5c-0.1,0-0.1,0-0.1,0l-4,4.8L2.4,0.3L2.4,0.3L2.4,0.3z"/>
			<path class="st0" d="M15.8,9.6c-1,0-2-1-2-2.1V0.3c0-0.1-0.1-0.2-0.2-0.2h-1.8c-0.1,0-0.2,0.1-0.2,0.2v7.2c0,2.5,1.9,4.1,4.2,4.1
				s4.2-1.6,4.2-4.1V0.3c0-0.1-0.1-0.2-0.2-0.2H18c-0.1,0-0.2,0.1-0.2,0.2v7.2C17.8,8.7,16.8,9.6,15.8,9.6z"/>
		</g>
		<path class="st0" d="M74.6,22.6l1.5,2.9c0,0.1,0,0.1-0.1,0.1h-1.1c-0.1,0-0.2-0.1-0.2-0.1l-1.4-2.7h-1.2v2.7
			c0,0.1-0.1,0.1-0.1,0.1h-0.8c-0.1,0-0.1-0.1-0.1-0.1c0-2.2,0-4.4,0-6.6c0-0.1,0.1-0.1,0.1-0.1h2.5c0.2,0,0.3,0,0.5,0.1
			c0.5,0.1,1,0.4,1.3,0.8c0.2,0.3,0.3,0.8,0.3,1.2c0,0.6-0.2,1.1-0.7,1.5C75.1,22.4,74.9,22.5,74.6,22.6L74.6,22.6z M74.9,20.8
			c0-0.2-0.1-0.4-0.2-0.6c-0.2-0.3-0.6-0.5-1-0.5h-1.5v2h1.5c0.4,0,0.8-0.2,1-0.5C74.8,21.2,74.9,21,74.9,20.8z"/>
		<path class="st0" d="M94,23.2c0,0.2,0.1,0.3,0.1,0.4c0,0.4-0.1,0.8-0.4,1.2c-0.4,0.5-1,0.7-1.5,0.8c-0.5,0.1-1.2,0.1-1.7-0.1
			c-0.3-0.1-0.6-0.2-0.8-0.4c-0.1-0.1-0.2-0.2-0.3-0.3c-0.1-0.1-0.1-0.2,0-0.2l0.5-0.5c0.1-0.1,0.2-0.1,0.3,0
			c0.3,0.3,0.7,0.4,1.1,0.5c0.3,0.1,0.7,0.1,1,0c0.2-0.1,0.5-0.2,0.6-0.3c0.1-0.1,0.2-0.2,0.2-0.4c0.1-0.2,0.1-0.4,0-0.6
			c-0.1-0.2-0.2-0.4-0.4-0.5c-0.1-0.1-0.2-0.1-0.4-0.1c-0.2-0.1-0.5-0.1-0.7-0.1c-0.2,0-0.5-0.1-0.7-0.1c-0.2-0.1-0.4-0.2-0.7-0.3
			c-0.4-0.3-0.7-0.6-0.7-1.1c-0.1-0.4,0-0.8,0.1-1.2c0.2-0.4,0.5-0.7,0.8-0.9c0.2-0.1,0.4-0.2,0.6-0.2c0.4-0.1,0.8-0.1,1.2-0.1
			c0.3,0,0.5,0.1,0.8,0.2c0.3,0.1,0.6,0.3,0.9,0.5c0.1,0.1,0.1,0.2,0,0.2l-0.5,0.5c-0.1,0.1-0.1,0.1-0.2,0C93,20,93,20,92.9,20
			c-0.2-0.1-0.3-0.2-0.4-0.2c-0.2-0.1-0.5-0.1-0.8-0.1c-0.2,0-0.5,0-0.7,0.2c-0.4,0.2-0.5,0.5-0.5,0.9c0,0.2,0.1,0.4,0.2,0.6
			c0.2,0.2,0.6,0.3,0.9,0.3c0.2,0,0.3,0.1,0.5,0.1c0.3,0.1,0.6,0.1,0.8,0.2c0.4,0.2,0.7,0.4,0.8,0.7C93.9,22.8,94,23,94,23.2z"/>
		<path class="st0" d="M80.6,25.6c-0.1,0-0.1-0.1-0.1-0.1v-6.6c0-0.1,0.1-0.1,0.1-0.1h4.1c0.1,0,0.1,0.1,0.1,0.1v0.8
			c0,0.1-0.1,0.1-0.1,0.1h-3.2v1.9h2h0.5h0.2c0.1,0,0.1,0.1,0.1,0.1v0.4v0v0.4c0,0.1-0.1,0.1-0.1,0.1h-0.2h-0.5h-2v1.9h3.2
			c0.1,0,0.1,0.1,0.1,0.1v0.8c0,0.1-0.1,0.1-0.1,0.1C83.4,25.6,82,25.6,80.6,25.6z"/>
		<path class="st0" d="M55.7,19.8v5.7c0,0.1-0.1,0.1-0.1,0.1h-0.8c-0.1,0-0.1-0.1-0.1-0.1c0-1.9,0-3.8,0-5.7h-1.7
			c-0.1,0-0.1-0.1-0.1-0.1v-0.8c0-0.1,0.1-0.1,0.1-0.1h4.5c0.1,0,0.1,0.1,0.1,0.1v0.8c0,0.1-0.1,0.1-0.1,0.1H55.7z"/>
		<path class="st0" d="M48.4,23.3c0,0.5-0.2,1-0.4,1.4c-0.4,0.5-0.9,0.8-1.5,1c-0.2,0-0.3,0.1-0.5,0.1s-0.3,0-0.5-0.1
			c-0.6-0.1-1.2-0.4-1.5-1c-0.3-0.4-0.4-0.9-0.4-1.4c0-1.5,0-2.9,0-4.4c0-0.1,0.1-0.1,0.1-0.1h0.8c0.1,0,0.1,0.1,0.1,0.1
			c0,1.5,0,2.9,0,4.3c0,0.6,0.3,1.2,1,1.4c0.1,0,0.3,0.1,0.4,0.1s0.3,0,0.4-0.1c0.7-0.2,1-0.8,1-1.4v-4.3c0-0.1,0.1-0.1,0.1-0.1h0.8
			c0.1,0,0.1,0.1,0.1,0.1C48.4,20.4,48.4,21.8,48.4,23.3z"/>
		<path class="st0" d="M35.8,19.8v2h2.7c0.1,0,0.1,0.1,0.1,0.1v0.8c0,0.1-0.1,0.1-0.1,0.1h-2.7v2.7c0,0.1-0.1,0.1-0.1,0.1h-0.8
			c-0.1,0-0.1-0.1-0.1-0.1v-6.6c0-0.1,0.1-0.1,0.1-0.1H39c0.1,0,0.1,0.1,0.1,0.1v0.8c0,0.1-0.1,0.1-0.1,0.1L35.8,19.8L35.8,19.8z"/>
		<path class="st0" d="M66.8,23.3c0,0.5-0.2,1-0.4,1.4c-0.4,0.5-0.9,0.8-1.5,1c-0.2,0-0.3,0.1-0.5,0.1c-0.2,0-0.3,0-0.5-0.1
			c-0.6-0.1-1.2-0.4-1.5-1c-0.3-0.4-0.4-0.9-0.4-1.4c0-1.5,0-2.9,0-4.4c0-0.1,0.1-0.1,0.1-0.1h0.8c0.1,0,0.1,0.1,0.1,0.1
			c0,1.5,0,2.9,0,4.3c0,0.6,0.3,1.2,1,1.4c0.1,0,0.3,0.1,0.4,0.1c0.2,0,0.3,0,0.4-0.1c0.7-0.2,1-0.8,1-1.4v-4.3
			c0-0.1,0.1-0.1,0.1-0.1h0.8c0.1,0,0.1,0.1,0.1,0.1C66.8,20.4,66.8,21.8,66.8,23.3z"/>
	</g>
</g>
</svg>
