<?xml version="1.0" encoding="utf-8"?>
<!-- Generator: Adobe Illustrator 23.0.3, SVG Export Plug-In . SVG Version: 6.00 Build 0)  -->
<svg version="1.1" id="Layer_1" xmlns="http://www.w3.org/2000/svg" xmlns:xlink="http://www.w3.org/1999/xlink" x="0px" y="0px"
	 viewBox="0 0 237.1 228.1" style="enable-background:new 0 0 237.1 228.1;" xml:space="preserve">
<style type="text/css">
	.st0{fill:#095270;}
	.st1{fill:#FFFFFF;}
	.st2{fill:#3D8AAB;}
	.st3{fill:#7FCDEE;}
</style>
<g>
	<g>
		<polygon class="st0" points="1.9,112.5 50.8,29.7 118.2,7 186.2,29.7 235.2,112.5 119,226.1 		"/>
		<path class="st1" d="M118.2,8.6l67,22.4l48.1,81.3L119,224L3.8,112.3l48-81.3L118.2,8.6 M118.2,5.4l-1,0.3L50.9,28.1l-1.1,0.4
			l-0.6,1l-48,81.3l-1.2,2l1.7,1.6l115.2,111.7l2.1,2l2.1-2l114.3-111.7l1.7-1.6l-1.2-2l-48.1-81.3l-0.6-1l-1.1-0.4l-67-22.4
			L118.2,5.4L118.2,5.4z"/>
	</g>
	<polygon class="st2" points="118.3,8.6 185.2,31 134.1,66.2 103.3,66.2 51.9,31 	"/>
	<polygon class="st1" points="88,74.1 96.8,68.2 77.1,58.2 	"/>
	<polygon class="st1" points="149.2,74.1 160.1,58.2 140.4,68.2 	"/>
	<g>
		<polygon class="st2" points="37.4,10 50.9,1.6 74.7,6.2 80.1,17 30.9,34.7 		"/>
		<path class="st1" d="M51.2,3.2l22.5,4.3l4.3,8.7L33.1,32.4L38.7,11L51.2,3.2 M50.6,0l-1,0.6L37.1,8.4l-1,0.6l-0.3,1.2l-5.6,21.4
			l-1.4,5.5l5.4-1.9L79,19l3.2-1.1l-1.5-3l-4.3-8.7l-0.7-1.3l-1.5-0.3L51.7,0.3L50.6,0L50.6,0z"/>
	</g>
	<g>
		<polygon class="st2" points="157,17.1 162.4,6.2 186.2,1.6 199.8,10 206.2,34.8 		"/>
		<path class="st1" d="M185.9,3.2l12.5,7.8l5.6,21.5l-44.9-16.2l4.2-8.7L185.9,3.2 M186.5,0l-1.2,0.2l-22.6,4.3l-1.5,0.3l-0.7,1.4
			l-4.2,8.7l-1.5,3l3.1,1.1l44.9,16.2l5.4,1.9l-1.4-5.5l-5.6-21.5l-0.3-1.2l-1-0.6l-12.5-7.8L186.5,0L186.5,0z"/>
	</g>
	<path class="st3" d="M213.6,79l19.7,33.2l-1.5-2.5L165.7,92l47.7-13C213.5,79,213.6,79,213.6,79z M193.9,45.7l-12.4,8.1L211.2,75
		L193.9,45.7z M232.7,112.9l-39.6,12.7l12.5,13.8l27.7-27.1L232.7,112.9z M210.2,77.3L177,54.1h-0.1l-14.1,36L210.2,77.3z
		 M228.6,111.5l-64.2-17.2l26.7,29.3L228.6,111.5z M145.8,117l6.8-13.3l-12.3,2.5L145.8,117z M152.3,95.5l1.9,5l3.4-6.6L152.3,95.5z
		 M165.2,176.1l-30.6-30.2l-10.9,53.7L165.2,176.1z M132.8,142.6l13-25.3l-25.3,9.3L132.8,142.6z M160.5,93.8l-24.3,47.4l52.2-16.8
		L160.5,93.8z M190.3,126.5l-47.7,15.4l60.1-1.8L190.3,126.5z M150.3,94.3l-13.5-23.4h-36.4L86.9,94.3l31.8,23.3L150.3,94.3z
		 M128,165.5l-24.9,20.2l17.5,15.9L128,165.5z M132.2,144.8l-33.9,11.4l29.7,9L132.2,144.8z M136.8,144.5l31.4,30.9
		c0.1,0.1,0.2,0.2,0.2,0.3l-3.5,3.4L123,202.8l-1.5,18.8L119,224l0,0l83.2-81.5L136.8,144.5z M118.4,223.5l2.2-20.9l-14.5,9
		l12.8,12.4L118.4,223.5z M182.3,33.7l-15.5,14.5l8.1,3.7C178,44.3,180.8,37.5,182.3,33.7z M185.2,31.1l0.5,0.8l-8.3,21.2h0.1
		l15.1-9.7l0.7,1.2l-8.1-13.7h-0.1C185.2,31,185.2,31,185.2,31.1z M118.6,39.5l-15.5,26.7h30.8L118.6,39.5z M173.7,54.9l-9.1,2
		l3.5,12C169.9,64.4,171.8,59.6,173.7,54.9z M166.8,72.1L152.1,76l7.3,14.2C160.5,87.5,163.4,80.4,166.8,72.1z"/>
	<polygon class="st0" points="135.6,83.4 130.5,74.6 118.6,74.6 106.7,74.6 101.5,83.4 118.6,94.1 	"/>
</g>
</svg>
