<?xml version="1.0" encoding="utf-8"?>
<!-- Generator: Adobe Illustrator 23.0.3, SVG Export Plug-In . SVG Version: 6.00 Build 0)  -->
<svg version="1.1" id="Layer_1" xmlns="http://www.w3.org/2000/svg" xmlns:xlink="http://www.w3.org/1999/xlink" x="0px" y="0px"
	 viewBox="0 0 237.1 228.1" style="enable-background:new 0 0 237.1 228.1;" xml:space="preserve">
<style type="text/css">
	.st0{fill:#FFFFFF;stroke:#313643;stroke-width:2;stroke-miterlimit:10;}
	.st1{fill:none;}
	.st2{fill:#313643;stroke:#313643;stroke-width:4;stroke-miterlimit:10;}
	.st3{fill:#313643;}
	.st4{fill:#FFFFFF;}
</style>
<polygon class="st0" points="1.9,112.5 50.8,29.7 118.2,7 186.2,29.7 235.2,112.5 119,226.1 "/>
<polygon class="st1" points="118.3,8.6 185.2,31 134.1,66.2 103.3,66.2 51.9,31 "/>
<polygon class="st2" points="88,74.1 96.8,68.2 77.1,58.2 "/>
<polygon class="st2" points="149.2,74.1 160.1,58.2 140.4,68.2 "/>
<polygon class="st0" points="37.4,9.5 50.9,1.1 74.7,5.7 80.1,16.5 30.9,34.2 "/>
<polygon class="st0" points="157,16.6 162.4,5.7 186.2,1.1 199.8,9.5 206.2,34.3 "/>
<path class="st3" d="M213.6,79l19.7,33.2l-1.5-2.5L165.7,92l47.7-13C213.5,79,213.6,79,213.6,79z M193.9,45.7l-12.4,8.1L211.2,75
	L193.9,45.7z M232.7,112.9l-39.6,12.7l12.5,13.8l27.7-27.1L232.7,112.9z M210.2,77.3L177,54.1h-0.1l-14.1,36L210.2,77.3z
	 M228.6,111.5l-64.2-17.2l26.7,29.3L228.6,111.5z M145.8,117l6.8-13.3l-12.3,2.5L145.8,117z M152.3,95.5l1.9,5l3.4-6.6L152.3,95.5z
	 M165.2,176.1l-30.6-30.2l-10.9,53.7L165.2,176.1z M132.8,142.6l13-25.3l-25.3,9.3L132.8,142.6z M160.5,93.8l-24.3,47.4l52.2-16.8
	L160.5,93.8z M190.3,126.5l-47.7,15.4l60.1-1.8L190.3,126.5z M150.3,94.3l-13.5-23.4h-36.4L86.9,94.3l31.8,23.3L150.3,94.3z
	 M128,165.5l-24.9,20.2l17.5,15.9L128,165.5z M132.2,144.8l-33.9,11.4l29.7,9L132.2,144.8z M136.8,144.5l31.4,30.9
	c0.1,0.1,0.2,0.2,0.2,0.3l-3.5,3.4L123,202.8l-1.5,18.8L119,224l0,0l83.2-81.5L136.8,144.5z M118.4,223.5l2.2-20.9l-14.5,9
	l12.8,12.4L118.4,223.5z M182.3,33.7l-15.5,14.5l8.1,3.7C178,44.3,180.8,37.5,182.3,33.7z M185.2,31.1l0.5,0.8l-8.3,21.2h0.1
	l15.1-9.7l0.7,1.2l-8.1-13.7h-0.1C185.2,31,185.2,31,185.2,31.1z M118.6,39.5l-15.5,26.7h30.8L118.6,39.5z M173.7,54.9l-9.1,2
	l3.5,12C169.9,64.4,171.8,59.6,173.7,54.9z M166.8,72.1L152.1,76l7.3,14.2C160.5,87.5,163.4,80.4,166.8,72.1z"/>
<polygon class="st4" points="135.6,83.4 130.5,74.6 118.6,74.6 106.7,74.6 101.5,83.4 118.6,94.1 "/>
</svg>
