<?xml version="1.0" encoding="utf-8"?>
<!-- Generator: Adobe Illustrator 23.0.3, SVG Export Plug-In . SVG Version: 6.00 Build 0)  -->
<svg version="1.1" id="Layer_1" xmlns="http://www.w3.org/2000/svg" xmlns:xlink="http://www.w3.org/1999/xlink" x="0px" y="0px"
	 viewBox="0 0 592 572" style="enable-background:new 0 0 592 572;" xml:space="preserve">
<style type="text/css">
	.st0{fill:#FFFFFF;}
	.st1{fill:#313643;}
	.st2{fill:#313643;stroke:#313643;stroke-width:4;stroke-miterlimit:10;}
	.st3{fill:#FFFFFF;stroke:#252834;stroke-width:5;stroke-miterlimit:10;}
</style>
<path class="st0" d="M3.9,285.3l-0.6-4.8L124.1,75.7l2.1-1.7l167.5-56.5h2.5l169,56.5l2.1,1.7l121.4,204.8l-0.8,4.8l-289,283.3h-5.4
	L3.9,285.3z"/>
<path class="st1" d="M295,21.1l169,56.5l121.4,205L296.2,565.9L6.6,282.6l121-205L295,21.1z M297.3,13.8h-4.8L125.1,70.3l-4.2,3.5
	L0,278.6l1.2,9.4l289.6,283.3h10.8L590.8,288l1.2-9.4l-121.4-205l-4.2-3.5L297.3,13.8z"/>
<path class="st2" d="M191.2,147l49.7,25.4l-22.2,14.8L191.2,147z"/>
<path class="st2" d="M400.8,147l-49.7,25.4l22.2,14.8L400.8,147z"/>
<path class="st3" d="M124.3,0l-2.5,1.5L90.2,21.4l-2.5,1.5l-0.8,2.9L72.8,80.2l-3.7,14.1l13.7-5l113.3-40.9l8.1-2.9l-3.9-7.7
	l-11-22.2l-1.7-3.5l-3.9-0.8L127,0.4L124.3,0z"/>
<path class="st3" d="M467.7,0l-3.1,0.6l-56.8,11l-3.9,0.8l-1.7,3.5l-10.8,22l-3.9,7.7l8.1,2.9l113.3,40.9l13.7,5L519,80.2L504.9,26
	l-0.8-2.9l-2.5-1.5L470,1.7L467.7,0z"/>
<path class="st0" d="M295.4,21.8L127.6,78.2l129.7,89h77.9l129.1-89L295.4,21.8z"/>
<path class="st1" d="M249.9,179.2h91.9l34.3,59l-80.2,59l-80.2-59L249.9,179.2z"/>
<path class="st1" d="M296,100l-38.9,67.3H335L296,100z"/>
<path class="st1" d="M398.1,357.9l-33.3-56.7l6.2,58.2L398.1,357.9z"/>
<path class="st1" d="M405.8,361.9l96.5-5.8l-77.5,38.2L405.8,361.9z"/>
<path class="st1" d="M372.5,418.9l-41.4-3.9l6-49.1l29.7-1.7L372.5,418.9z"/>
<path class="st1" d="M371.3,364l29.3-1.7l20,34.1L376.9,418L371.3,364z"/>
<path class="st1" d="M505.5,351.3l-102.3,6.2l-36.4-62.1L505.5,351.3z"/>
<path class="st1" d="M309.7,506.1l63.6-78.6l5.8,55.1L309.7,506.1z"/>
<path class="st1" d="M370.6,423.4l-62.2,76.9l21.2-80.7L370.6,423.4z"/>
<path class="st1" d="M387.3,257.7l-6.2-16.4l18.5-5.6L387.3,257.7z"/>
<path class="st1" d="M503.5,168.4l-34.7,22L440.1,180L503.5,168.4z"/>
<path class="st1" d="M474.4,192.1l38.2-24.1l0.2,37.8L474.4,192.1z"/>
<path class="st1" d="M425.7,290.4l73,53.2l-126.6-51.1L425.7,290.4z"/>
<path class="st1" d="M383.3,420.1l39.7-19.7l14.5,24.7L383.3,420.1z"/>
<path class="st1" d="M433.2,290.2l80-3.3l0.4,61.9L433.2,290.2z"/>
<path class="st1" d="M512.8,211v11.4l-100.6,9.4l57.2-36.2L512.8,211z"/>
<path class="st1" d="M416.6,235.9L513,227l0.2,33.5L416.6,235.9z"/>
<path class="st1" d="M513.2,265.4v17l-85.9,3.7l-35.7-26l12.5-22.4L513.2,265.4z"/>
<path class="st1" d="M360.9,288.5c0,0.2-0.2,0.2-0.4,0.2l-0.4,0.4l-9.2-20.6l35.3-7.3c0.2,0.6,0.6,1,1,1.3l32.6,23.7l-58.6,2.3
	H360.9z"/>
<path class="st1" d="M366.1,359.8l-31.4,1.9c-0.4,0-1,0.2-1.5,0.6l-32.6-42.6L359,292L366.1,359.8z"/>
<path class="st1" d="M332.4,365.2l-6.2,50.3c-0.2,0.2-0.6,0.6-0.6,1l-80.9-21.8L332.4,365.2z"/>
<path class="st1" d="M430.5,181.5l33.5,11.9l-62.2,39.3l-21.2-40.9L429,180C429.2,180.6,429.7,181.3,430.5,181.5z"/>
<path class="st1" d="M383.5,481.3l-6-57.1l58.8,5.4L383.5,481.3v0.1l-6.9,6.7h-0.1L296,566.9l8.9-54.5l71.6-24.2L383.5,481.3z"/>
<path class="st1" d="M506.8,163.2l-76.1,13.9c-0.2,0-0.4,0-0.8,0.6L412,144.3l40.7-5.4c0,0.8,0.6,1.3,1.3,1.7L506.8,163.2z"/>
<path class="st1" d="M513,354.8l-2.9,2.9l-0.1,0.1l-70,68.7l2.3-2.3l-15-25.6l82.8-40.8L513,354.8z"/>
<path class="st1" d="M263.2,534.8l37-22.5l-8.1,50.7L263.2,534.8z"/>
<path class="st1" d="M324.5,420.1l-23.3,89l-44.3-39.9L324.5,420.1z"/>
<path class="st1" d="M538.2,220.1l-20.8,1.9v-9.4L538.2,220.1z"/>
<path class="st1" d="M417.8,122l43.6-41l-8.5,56.5L417.8,122z"/>
<path class="st1" d="M583.5,279.8l-0.8-1.4l-64.9-16.6l-0.2-35.3l31.6-2.9c0.4,0,0.8-0.2,1-0.4l32.5,55.1l0,0L583.5,279.8z"/>
<path class="st1" d="M517.8,266.5l52.6,13.5l-52.6,2.1V266.5z"/>
<path class="st1" d="M512.8,160.5l-55.3-23.7l8.6-55.4l-1.9-3.2l1.9,3.1v0.1l49.7,84.3L512.8,160.5z"/>
<path class="st1" d="M582.2,284.1c0.8-1,1.3-2.1,2.1-3.1l1.5,2.5l-67.4,66.1l-0.4-62.8L582.2,284.1z"/>
<path class="st1" d="M547.1,218.3l-29.7-10.6l-0.2-39.7L547.1,218.3z"/>
<path class="st0" d="M296,237.8l-43.2-27l13.1-22.4H296h30.1l13.1,22.4L296,237.8z"/>
<path class="st0" d="M458.3,132c-5-1.2-9.4,3.9-6.9,8.9c0.6,1.2,1.5,2.1,2.5,2.5c5,2.3,10-1.9,8.9-6.9
	C462.3,134.1,460.4,132.4,458.3,132z M463.7,72.1c-3.5,0-6.2,2.7-6.2,6.2s2.7,6.2,6.2,6.2s6.2-2.7,6.2-6.2
	C469.8,75,467.1,72.1,463.7,72.1z M513.6,169.4c3.5,0,6.2-2.7,6.2-6.2s-2.7-6.2-6.2-6.2s-6.2,2.7-6.2,6.2
	C507.4,166.7,510.1,169.4,513.6,169.4z M582.8,276.3c-3.5,0-6.2,2.7-6.2,6.2s2.7,6.2,6.2,6.2s6.2-2.7,6.2-6.2
	C588.9,279,586,276.3,582.8,276.3z M546.9,215.4c-3.5,0-6.2,2.7-6.2,6.2s2.7,6.2,6.2,6.2s6.2-2.7,6.2-6.2
	C553.1,218.3,550.4,215.4,546.9,215.4z M513.6,344.9c-3.5,0-6.2,2.7-6.2,6.2s2.7,6.2,6.2,6.2s6.2-2.7,6.2-6.2
	C519.7,347.8,517,344.9,513.6,344.9z M381,421.6c0-3.5-2.7-6.2-6.2-6.2s-6.2,2.7-6.2,6.2s2.7,6.2,6.2,6.2
	C378.1,427.8,381,425.1,381,421.6z M436.5,179.2c0-3.5-2.7-6.2-6.2-6.2s-6.2,2.7-6.2,6.2s2.7,6.2,6.2,6.2S436.5,182.7,436.5,179.2z
	 M402.8,228.7c-3.5,0-6.2,2.7-6.2,6.2s2.7,6.2,6.2,6.2s6.2-2.7,6.2-6.2C408.9,231.6,406.2,228.7,402.8,228.7z M388.7,254
	c-3.5,0-6.2,2.7-6.2,6.2s2.7,6.2,6.2,6.2s6.2-2.7,6.2-6.2C394.9,256.7,392,254,388.7,254z M361.5,284.8c-3.5,0-6.2,2.7-6.2,6.2
	s2.7,6.2,6.2,6.2s6.2-2.7,6.2-6.2S365,284.8,361.5,284.8z M334.9,357.9c-3.5,0-6.2,2.7-6.2,6.2s2.7,6.2,6.2,6.2s6.2-2.7,6.2-6.2
	S338.4,357.9,334.9,357.9z M327.6,411.2c-3.5,0-6.2,2.7-6.2,6.2s2.7,6.2,6.2,6.2s6.2-2.7,6.2-6.2
	C333.8,413.9,331.1,411.2,327.6,411.2z M303.3,503.9c-3.5,0-6.2,2.7-6.2,6.2c0,3.5,2.7,6.2,6.2,6.2s6.2-2.7,6.2-6.2
	C309.5,506.8,306.6,503.9,303.3,503.9z M381,477c-3.5,0-6.2,2.7-6.2,6.2s2.7,6.2,6.2,6.2s6.2-2.7,6.2-6.2
	C387.2,479.8,384.3,477,381,477z M297.2,559c-4.4-0.8-8.1,2.9-7.3,7.3c0.4,2.5,2.5,4.4,4.8,4.8c4.4,0.8,8.1-2.9,7.3-7.3
	C301.6,561.6,299.7,559.6,297.2,559z M440,421.6c-3.5,0-6.2,2.7-6.2,6.2s2.7,6.2,6.2,6.2s6.2-2.7,6.2-6.2
	C446.1,424.3,443.2,421.6,440,421.6z"/>
</svg>
