<?xml version="1.0" encoding="utf-8"?>
<!-- Generator: Adobe Illustrator 23.0.3, SVG Export Plug-In . SVG Version: 6.00 Build 0)  -->
<svg version="1.1" id="Layer_1" xmlns="http://www.w3.org/2000/svg" xmlns:xlink="http://www.w3.org/1999/xlink" x="0px" y="0px"
	 viewBox="0 0 301.7 291.2" style="enable-background:new 0 0 301.7 291.2;" xml:space="preserve">
<style type="text/css">
	.st0{fill:url(#SVGID_1_);stroke:#FFFFFF;stroke-miterlimit:10;}
	.st1{fill:url(#SVGID_2_);stroke:#FFFFFF;stroke-miterlimit:10;}
	.st2{fill:url(#SVGID_3_);stroke:#FFFFFF;stroke-miterlimit:10;}
	.st3{fill:url(#SVGID_4_);stroke:#FFFFFF;stroke-miterlimit:10;}
	.st4{fill:#FFFFFF;}
</style>
<g id="Layer_3">
</g>
<g>
	<g>
		<linearGradient id="SVGID_1_" gradientUnits="userSpaceOnUse" x1="38.8298" y1="19.7283" x2="97.7298" y2="19.7283">
			<stop  offset="0" style="stop-color:#15AABF"/>
			<stop  offset="0.1148" style="stop-color:#1EA5C0"/>
			<stop  offset="0.3022" style="stop-color:#3697C5"/>
			<stop  offset="0.5387" style="stop-color:#5E81CB"/>
			<stop  offset="0.8125" style="stop-color:#9462D4"/>
			<stop  offset="1" style="stop-color:#BE4BDB"/>
		</linearGradient>
		<polygon class="st0" points="62.5,0.5 46.1,10.8 38.8,38.9 97.7,17.7 92,6.2 		"/>
		<linearGradient id="SVGID_2_" gradientUnits="userSpaceOnUse" x1="203.9298" y1="19.7283" x2="262.7298" y2="19.7283">
			<stop  offset="0" style="stop-color:#15AABF"/>
			<stop  offset="0.1148" style="stop-color:#1EA5C0"/>
			<stop  offset="0.3022" style="stop-color:#3697C5"/>
			<stop  offset="0.5387" style="stop-color:#5E81CB"/>
			<stop  offset="0.8125" style="stop-color:#9462D4"/>
			<stop  offset="1" style="stop-color:#BE4BDB"/>
		</linearGradient>
		<polygon class="st1" points="239.1,0.5 209.6,6.2 203.9,17.7 262.7,38.9 255.5,10.8 		"/>
		<linearGradient id="SVGID_3_" gradientUnits="userSpaceOnUse" x1="128.4298" y1="106.9284" x2="173.2298" y2="106.9284">
			<stop  offset="0" style="stop-color:#15AABF"/>
			<stop  offset="0.1148" style="stop-color:#1EA5C0"/>
			<stop  offset="0.3022" style="stop-color:#3697C5"/>
			<stop  offset="0.5387" style="stop-color:#5E81CB"/>
			<stop  offset="0.8125" style="stop-color:#9462D4"/>
			<stop  offset="1" style="stop-color:#BE4BDB"/>
		</linearGradient>
		<polygon class="st2" points="173.2,105.7 166.4,94.1 150.8,94.1 135.2,94.1 128.4,105.7 150.8,119.7 		"/>
		<linearGradient id="SVGID_4_" gradientUnits="userSpaceOnUse" x1="0.6298" y1="149.1783" x2="301.0298" y2="149.1783">
			<stop  offset="0" style="stop-color:#15AABF"/>
			<stop  offset="0.1148" style="stop-color:#1EA5C0"/>
			<stop  offset="0.3022" style="stop-color:#3697C5"/>
			<stop  offset="0.5387" style="stop-color:#5E81CB"/>
			<stop  offset="0.8125" style="stop-color:#9462D4"/>
			<stop  offset="1" style="stop-color:#BE4BDB"/>
		</linearGradient>
		<path class="st3" d="M238,37.1L150.3,7.8L63.4,37.1L0.6,143.5l150.3,147l150.1-147L238,37.1z M264,98.1l21.3,36l-77.4-20.7
			l55.9-15.2C263.9,98.1,264,98.1,264,98.1z M280.6,141.8l-43.9,14.1l-31.3-34.3L280.6,141.8z M235.4,49.2l25.8,43.7l-44.3-31.6
			L235.4,49.2z M211.2,63.8l-20.1,29.3L175,82.3L211.2,63.8z M126.7,82.3l-16.1,10.8L90.5,63.8L126.7,82.3z M126.9,89.3h47.7
			l17.8,30.6l-41.6,30.6l-41.6-30.6L126.9,89.3z M175,254.1c0-0.1-0.2-0.2-0.3-0.3l-46.9-46.1l97.6-3L175,254.1z M144.8,197.3
			l71.2-23l18.5,20.3L144.8,197.3z M242.6,188.8l-18.7-20.6l59.1-18.9L242.6,188.8z"/>
	</g>
</g>
<path class="st4" d="M175,80.3"/>
</svg>
